# xmcd
# 
# Track frame offsets:
#     183
#     9418
#     32248
#     69480
#     100478
#     138818
#     170710
# 
# Disc length: 3586
# 
# Revision: 2
# Processed by: cddbd v1.5.2PL0 Copyright (c) Steve Scherf et al.
# Submitted via: fre:ac v1.1beta2
# 
DISCID=590e0007
DTITLE=Van Kampen - A Long Walk On A Short Pier
DYEAR=1989
DGENRE=New Age
TTITLE0=The Impi
TTITLE1=Mosi Oa Tunya
TTITLE2=Dance Of The Impi
TTITLE3=Return Of The Impi
TTITLE4=Wakarimasen
TTITLE5=Tellem Mallets
TTITLE6=A Long Walk On A Short Pier
EXTD=YEAR: 1989
EXTT0=
EXTT1=
EXTT2=
EXTT3=
EXTT4=
EXTT5=
EXTT6=
PLAYORDER=
